<svg version="1.1" xmlns="http://www.w3.org/2000/svg" style="display: block;" viewBox="0 0 2048 2048" width="1024" height="1024" preserveAspectRatio="none">
<defs>
	<linearGradient id="Gradient1" gradientUnits="userSpaceOnUse" x1="1030.83" y1="930.666" x2="1140.73" y2="76.576">
		<stop class="stop0" offset="0" stop-opacity="1" stop-color="rgb(30,159,232)"/>
		<stop class="stop1" offset="1" stop-opacity="1" stop-color="rgb(74,212,247)"/>
	</linearGradient>
</defs>
<path transform="translate(0,0)" fill="url(#Gradient1)" d="M 1042.79 60.7114 C 1048.85 66.0909 1061.36 80.6774 1067.21 87.1256 L 1112.86 137.396 L 1262.07 301.427 L 1755.19 843.046 L 1043.23 843.265 L 330.613 843.184 C 340.011 831.848 352.604 818.798 362.753 807.59 L 432.568 730.805 L 644.478 497.997 L 925.275 189.84 L 994.382 114.091 C 1009.92 96.8394 1026.79 77.1923 1042.79 60.7114 z"/>
<path transform="translate(0,0)" fill="rgb(254,254,254)" d="M 1137.49 495.419 C 1140.59 495.38 1143.69 495.554 1146.77 495.937 C 1183.37 500.254 1204.88 536.304 1196.75 570.624 C 1178.31 648.53 1083.6 675.127 1014.94 664.167 C 1012.26 669.105 1007.2 680.229 1002.07 682.209 L 1000.87 680.6 C 1000.22 674.249 1001.91 668.223 1003.18 661.876 C 993.02 657.177 988.313 654.473 979.8 647.271 C 966.469 636.561 957.953 608.179 936.837 622.737 C 909.678 641.46 899.437 668.04 917.653 697.991 C 932.647 691.797 945.33 685.619 961.964 685.669 C 1008.43 685.81 1019.37 755.627 988.841 781.71 C 980.831 788.645 970.254 791.855 959.74 790.541 C 935.862 787.631 918.361 766.105 904.643 748.612 C 896.776 753.804 888.869 760.619 881.123 766.164 C 850.402 788.155 812.965 806.403 775.021 791.916 C 742.868 779.639 740.728 749.479 729.315 722.377 C 718.809 739.612 713.272 746.191 695.742 756.347 C 660.31 774.976 620.743 764.332 631.913 716.832 C 641.617 675.569 675.435 654.268 709.129 633.329 C 706.103 618.076 703.297 590.488 720.447 582.19 L 722.091 582.788 C 727.252 589.412 732.037 609.328 734.593 618.229 C 745.35 611.664 763.096 595.642 773.431 586.747 C 770.022 612.815 756.937 626.112 737.637 642.538 C 739.38 651.92 741.506 661.809 743.15 671.089 C 749.868 709.018 758.14 749.151 805.549 750.823 C 836.863 751.927 866.615 733.875 893.477 718.818 C 888.39 687.823 886.654 663.85 900.409 634.152 C 909.775 613.93 927.581 586.502 949.699 578.136 C 972.896 569.363 981.488 592.544 996.039 605.982 C 1005.73 614.929 1007.2 616.437 1019.26 622.013 C 1044.78 568.095 1068.46 500.133 1137.49 495.419 z"/>
<path transform="translate(0,0)" fill="rgb(44,174,233)" d="M 1110.86 539.228 C 1123.03 538.144 1133.37 538.791 1144.86 543.776 C 1217.32 575.227 1130.9 608.945 1095.41 619.423 C 1073.9 625.044 1056.82 624.912 1035.1 623.902 C 1049.39 590.529 1072.95 548.701 1110.86 539.228 z"/>
<path transform="translate(0,0)" fill="rgb(44,174,233)" d="M 712.1 655.76 L 713.294 656.362 C 717.485 664.53 719.906 685.78 720.148 695.162 C 718.686 696.832 717.166 698.452 715.591 700.017 C 703.872 711.491 681.929 719.026 665.385 718.871 C 629.352 709.218 702.164 662.247 712.1 655.76 z"/>
<path transform="translate(0,0)" fill="rgb(44,174,233)" d="M 942.217 727.206 C 944.305 726.966 946.399 726.785 948.497 726.663 C 961.837 725.961 994.77 737.767 974.101 752.673 C 965.013 752.991 934.317 737.577 937.794 728.883 L 942.217 727.206 z"/>
<path transform="translate(0,0)" fill="rgb(254,254,254)" d="M 1195.08 304.958 C 1212.36 303.791 1219.3 325.124 1223.67 338.87 C 1245.72 407.043 1245.51 477.831 1250.29 548.564 C 1254.95 603.793 1253.68 659.579 1269.24 713.184 C 1283.48 762.226 1327.42 768.824 1369.99 753.597 C 1364.1 747.425 1352.9 739.336 1346.1 733.429 C 1308.99 701.228 1310.2 647.877 1342.49 612.558 C 1377.25 574.551 1447.63 572.9 1485.39 607.206 C 1488.73 610.242 1493.83 614.854 1493.97 619.431 C 1489.08 621.585 1455.53 612.491 1445.03 613.015 C 1432.2 613.655 1420.01 612.883 1406.79 616.802 C 1390.65 621.408 1355.42 629.905 1346.08 645.689 C 1332.93 667.903 1375.96 700.081 1390.7 707.963 C 1453.31 739.678 1500.92 678.529 1551.5 653.868 L 1552.77 653.256 C 1549.94 680.678 1550.51 697.601 1525.35 713.567 C 1423.83 778.975 1248.85 904.171 1234.84 688.421 C 1233.26 678.58 1233 666.761 1231.81 657.188 C 1226.95 618.233 1222.82 358.598 1186.42 350.866 C 1175.61 353.911 1173.51 376.246 1166.99 384.376 L 1165.74 383.458 C 1164.64 380.294 1164.51 377.576 1165.15 374.265 C 1169.83 350.137 1174.28 320.577 1195.08 304.958 z"/>
<path transform="translate(0,0)" fill="rgb(6,68,154)" d="M 1350.62 912.514 C 1351.14 912.855 1352.14 913.445 1352.37 913.942 C 1366.36 943.996 1392.46 995.065 1393.27 1027.08 C 1385.32 1020.51 1378.64 1012.14 1369.95 1004.89 C 1371.7 1045.09 1375.81 1085.84 1378.67 1126.69 C 1382.39 1179.03 1388.62 1235.77 1374.16 1287.01 C 1364.97 1319.61 1338.14 1341.04 1303.98 1340.09 C 1258.9 1338.83 1229.07 1302.94 1197.77 1275.22 C 1188.33 1266.86 1180.66 1259.37 1168.52 1255.58 C 1179.79 1309.53 1168 1336.01 1115.41 1355.39 C 1110.46 1414.93 1077.31 1439.95 1037.79 1477.43 C 967.885 1543.72 830.38 1565.28 833.591 1433.22 C 834.114 1411.72 839.543 1391.76 841.336 1370.73 C 833.905 1372.93 821.782 1378.93 814.24 1382.21 C 804.918 1386.15 795.333 1389.45 785.554 1392.06 C 717.329 1410.8 634.409 1395.37 615.187 1317.53 C 608.835 1291.81 607.002 1266.73 611.732 1240.5 C 613.412 1231.18 620.488 1200.77 630.931 1198.09 C 632.774 1199.33 633.777 1200.89 633.67 1203.25 C 632.406 1230.99 625.391 1253.83 632.92 1281.87 C 639.261 1305.59 654.837 1325.78 676.169 1337.94 C 710.403 1357.59 754.159 1354.52 790.819 1344.18 C 821.255 1335.6 905.648 1295.69 920.916 1268.53 C 919.479 1256.6 915.249 1247.73 910.736 1236.71 C 905.215 1223.07 899.502 1209.5 893.6 1196.02 C 880.259 1165.82 870.416 1150.4 887.825 1117.93 C 911.239 1133.44 922.401 1145.75 936.958 1170.51 C 928.779 1167.69 922.92 1165.54 914.487 1163.9 C 927.117 1199.75 945.398 1232.12 939.151 1270.53 C 931.133 1319.83 893.792 1336.04 858.762 1361.35 C 854.777 1375.64 853.994 1394.73 854.199 1409.47 C 861.951 1526.47 977.701 1482.12 1035.69 1433.51 C 1050.38 1421.2 1099.97 1383.89 1092.34 1362.53 C 1086.42 1358.51 1038.29 1371.69 1017.67 1362.59 C 956.241 1335.47 1014.58 1236.83 1068.49 1260.07 C 1088.93 1268.88 1103.76 1292.3 1111.93 1312.46 C 1149.44 1301.77 1168.27 1291.7 1136.52 1256.55 C 1099.35 1215.41 1047.13 1191.74 1006.02 1157.98 L 1004.97 1157.11 C 1004.91 1151.55 1004.91 1145.98 1004.98 1140.42 C 1005.18 1125.87 1007.53 1095.03 1019.22 1085.24 C 1035.1 1071.95 1060.6 1058.19 1079.06 1047.86 C 1128.8 1020 1179.48 990.701 1232.84 970.451 C 1248.56 964.623 1266.03 960.494 1282.58 960.572 C 1297.62 960.643 1311.9 967.175 1309.88 984.088 C 1305.85 1017.9 1259.02 1086.38 1235.8 1107.55 C 1244.78 1077.29 1263.43 1051.79 1276.7 1023.66 C 1278.9 1019 1282.38 1009.94 1280.47 1005.12 C 1260.29 986.95 1111.46 1071.83 1084.6 1085.61 C 1071.3 1092.44 1035.85 1112.08 1024.93 1121.93 C 1069.83 1146.61 1129.75 1181.8 1170.89 1211.21 C 1184.39 1220.75 1197.64 1230.64 1210.63 1240.87 C 1226.95 1253.84 1242.85 1267.84 1261.05 1278.14 C 1282.82 1290.47 1310.75 1295.13 1335.02 1288.09 C 1343.98 1285.49 1353.39 1280.51 1356.99 1271.34 C 1363.99 1253.44 1344.75 1039.91 1341.75 1001.79 C 1340.57 986.784 1335.53 970.351 1336.81 955.398 C 1337.96 941.962 1343.55 925.205 1350.06 913.483 C 1350.25 913.157 1350.44 912.837 1350.62 912.514 z"/>
</svg>
